<svg width="4149" height="1461" viewBox="0 0 4149 1461" fill="none" xmlns="http://www.w3.org/2000/svg">
<path d="M3528.89 667.258C3528.89 638.223 3528.23 609.628 3526.91 581.472C3526.03 553.317 3524.93 525.161 3523.61 497.006C3543.41 497.886 3562.99 498.766 3582.34 499.645C3602.14 500.085 3621.94 500.305 3641.73 500.305C3661.53 500.305 3681.11 500.085 3700.46 499.645C3719.82 498.766 3739.4 497.886 3759.2 497.006C3757.88 503.605 3757.22 510.204 3757.22 516.803C3757.22 523.402 3757.88 530.001 3759.2 536.6C3745.12 535.72 3732.14 534.84 3720.26 533.96C3708.82 533.08 3696.51 532.2 3683.31 531.32C3670.55 530.44 3656.47 529.781 3641.07 529.341C3625.68 528.461 3607.2 528.021 3585.64 528.021C3585.2 542.099 3584.54 555.516 3583.66 568.274C3583.22 581.032 3583 595.55 3583 611.827C3583 628.985 3583 645.702 3583 661.979C3583.44 678.257 3583.66 690.575 3583.66 698.933C3603.02 698.933 3620.4 698.713 3635.8 698.273C3651.19 697.833 3665.27 697.394 3678.03 696.954C3690.79 696.074 3702.44 695.414 3713 694.974C3724 694.094 3734.34 693.214 3744.02 692.334C3742.7 698.933 3742.04 705.752 3742.04 712.791C3742.04 719.39 3742.7 725.989 3744.02 732.588C3732.58 731.268 3719.16 730.168 3703.76 729.288C3688.81 728.409 3673.63 727.969 3658.23 727.969C3643.27 727.529 3628.98 727.309 3615.34 727.309C3602.14 726.869 3591.58 726.649 3583.66 726.649C3583.66 730.608 3583.44 735.007 3583 739.847C3583 744.246 3583 749.965 3583 757.004V782.74V822.333C3583 847.409 3583 868.086 3583 884.363C3583.44 900.641 3583.88 912.959 3584.32 921.317C3598.84 921.317 3614.24 921.317 3630.52 921.317C3647.23 921.317 3663.51 921.097 3679.35 920.658C3695.63 919.778 3710.8 918.898 3724.88 918.018C3739.4 916.698 3751.94 914.938 3762.49 912.739C3761.61 915.818 3760.96 919.338 3760.52 923.297C3760.52 926.817 3760.52 930.116 3760.52 933.196C3760.52 940.234 3761.17 945.953 3762.49 950.353C3742.7 949.473 3722.9 949.033 3703.1 949.033C3683.75 949.033 3663.95 949.033 3643.71 949.033C3623.48 949.033 3603.46 949.033 3583.66 949.033C3563.87 949.033 3543.85 949.473 3523.61 950.353C3524.93 922.197 3526.03 894.262 3526.91 866.546C3528.23 838.391 3528.89 809.795 3528.89 780.76V667.258Z" fill="white"></path>
<path d="M3003.67 488.428C3034.03 550.898 3064.6 611.608 3095.4 670.558C3126.63 729.509 3159.19 789.999 3193.06 852.029C3197.46 843.67 3203.84 831.792 3212.2 816.395C3220.56 800.557 3230.24 782.52 3241.23 762.284C3252.23 742.047 3263.89 720.27 3276.21 696.954C3288.97 673.198 3301.73 649.222 3314.48 625.026C3327.68 600.83 3340.66 577.073 3353.42 553.757C3366.17 530.441 3378.05 508.664 3389.05 488.428H3397.63C3402.47 530.661 3406.87 571.574 3410.83 611.168C3415.23 650.322 3419.63 689.035 3424.03 727.309C3428.42 765.143 3432.82 802.757 3437.22 840.151C3441.62 877.105 3446.46 913.839 3451.74 950.353C3446.46 949.473 3441.18 949.033 3435.9 949.033C3431.06 949.033 3426.01 949.033 3420.73 949.033C3415.45 949.033 3410.17 949.033 3404.89 949.033C3400.05 949.033 3394.99 949.473 3389.71 950.353C3384.87 891.843 3380.03 835.092 3375.19 780.101C3370.35 725.11 3364.41 669.019 3357.38 611.828H3356.06C3325.7 667.259 3295.79 722.47 3266.31 777.461C3237.28 832.012 3209.56 889.203 3183.16 949.033H3177.23C3150.83 893.602 3123.11 838.171 3094.08 782.74C3065.48 726.869 3036.67 669.898 3007.63 611.828H3006.31C3003.23 639.103 2999.71 668.799 2995.75 700.913C2992.24 732.588 2988.94 764.043 2985.86 795.278C2982.78 826.073 2980.14 855.328 2977.94 883.044C2975.74 910.32 2974.64 932.756 2974.64 950.353C2967.6 949.473 2959.9 949.033 2951.54 949.033C2943.18 949.033 2935.48 949.473 2928.45 950.353C2934.16 914.719 2940.1 877.105 2946.26 837.511C2952.42 797.918 2958.36 758.104 2964.08 718.071C2969.8 678.037 2975.08 638.663 2979.92 599.95C2984.76 560.796 2988.94 523.622 2992.45 488.428H3003.67Z" fill="white"></path>
<path d="M2403.67 724.67C2403.67 687.276 2409.61 654.061 2421.49 625.026C2433.8 595.55 2450.74 570.694 2472.3 550.458C2494.29 530.221 2520.47 514.823 2550.82 504.265C2581.18 493.707 2614.39 488.428 2650.47 488.428C2686.98 488.428 2720.42 493.707 2750.77 504.265C2781.13 514.823 2807.08 530.221 2828.64 550.458C2850.64 570.694 2867.57 595.55 2879.45 625.026C2891.77 654.061 2897.93 687.276 2897.93 724.67C2897.93 762.064 2891.77 795.498 2879.45 824.973C2867.57 854.009 2850.64 878.645 2828.64 898.882C2807.08 919.118 2781.13 934.296 2750.77 944.414C2720.42 954.093 2686.98 958.932 2650.47 958.932C2614.39 958.932 2581.18 954.093 2550.82 944.414C2520.47 934.296 2494.29 919.118 2472.3 898.882C2450.74 878.645 2433.8 854.009 2421.49 824.973C2409.61 795.498 2403.67 762.064 2403.67 724.67ZM2833.26 724.67C2833.26 688.156 2828.64 656.701 2819.4 630.305C2810.16 603.469 2797.18 581.473 2780.47 564.316C2764.19 546.718 2744.83 533.74 2722.4 525.382C2700.4 517.023 2676.42 512.844 2650.47 512.844C2624.95 512.844 2600.98 517.023 2578.54 525.382C2556.54 533.74 2537.19 546.718 2520.47 564.316C2504.19 581.473 2491.43 603.469 2482.2 630.305C2472.96 656.701 2468.34 688.156 2468.34 724.67C2468.34 761.184 2472.96 792.859 2482.2 819.694C2491.43 846.09 2504.19 868.087 2520.47 885.684C2537.19 902.841 2556.54 915.599 2578.54 923.958C2600.98 932.316 2624.95 936.496 2650.47 936.496C2676.42 936.496 2700.4 932.316 2722.4 923.958C2744.83 915.599 2764.19 902.841 2780.47 885.684C2797.18 868.087 2810.16 846.09 2819.4 819.694C2828.64 792.859 2833.26 761.184 2833.26 724.67Z" fill="white"></path>
<path d="M2088.05 667.918C2088.05 638.883 2087.39 610.508 2086.07 582.792C2085.19 554.637 2084.09 526.041 2082.77 497.006C2095.53 497.886 2108.07 498.766 2120.39 499.645C2132.71 500.085 2145.24 500.305 2158 500.305C2170.76 500.305 2183.3 499.865 2195.62 498.986C2207.93 497.666 2220.47 497.006 2233.23 497.006C2251.71 497.006 2269.3 498.766 2286.02 502.285C2302.74 505.804 2317.26 511.744 2329.57 520.102C2342.33 528.021 2352.23 538.579 2359.27 551.777C2366.75 564.975 2370.49 581.472 2370.49 601.269C2370.49 622.386 2365.65 640.643 2355.97 656.04C2346.73 670.998 2335.29 683.536 2321.65 693.654C2308.02 703.333 2293.28 711.031 2277.44 716.75C2262.04 722.03 2247.97 725.549 2235.21 727.309C2240.49 733.908 2247.75 743.146 2256.99 755.024C2266.22 766.902 2276.56 780.1 2288 794.618C2299.44 808.696 2311.32 823.653 2323.63 839.491C2335.95 854.888 2347.83 869.846 2359.27 884.363C2370.71 898.441 2381.49 911.419 2391.6 923.297C2401.72 935.175 2409.86 944.194 2416.02 950.353C2409.42 949.473 2402.82 949.033 2396.22 949.033C2389.62 949.033 2383.03 949.033 2376.43 949.033C2370.27 949.033 2363.89 949.033 2357.29 949.033C2350.69 949.033 2344.31 949.473 2338.15 950.353C2331.55 941.114 2321.43 927.256 2307.8 908.779C2294.6 890.302 2279.86 870.506 2263.58 849.389C2247.31 828.272 2230.59 807.376 2213.43 786.699C2196.72 765.583 2181.32 747.765 2167.24 733.248H2142.16V781.42C2142.16 810.455 2142.6 839.051 2143.48 867.206C2144.8 895.362 2146.12 923.077 2147.44 950.353C2137.32 949.473 2126.55 949.033 2115.11 949.033C2103.67 949.033 2092.89 949.473 2082.77 950.353C2084.09 923.077 2085.19 895.362 2086.07 867.206C2087.39 839.051 2088.05 810.455 2088.05 781.42V667.918ZM2142.16 705.532C2148.32 706.852 2154.92 707.732 2161.96 708.172C2169.44 708.612 2177.58 708.832 2186.38 708.832C2200.01 708.832 2214.09 707.292 2228.61 704.212C2243.57 701.133 2257.21 695.854 2269.52 688.375C2281.84 680.456 2291.96 670.118 2299.88 657.36C2308.24 644.162 2312.42 627.665 2312.42 607.868C2312.42 590.711 2309.12 576.633 2302.52 565.635C2296.36 554.197 2288.22 545.178 2278.1 538.579C2267.98 531.98 2256.99 527.581 2245.11 525.381C2233.23 522.742 2221.57 521.422 2210.13 521.422C2194.74 521.422 2181.98 521.862 2171.86 522.742C2161.74 523.182 2153.16 523.842 2146.12 524.721C2145.24 548.918 2144.36 572.894 2143.48 596.65C2142.6 620.406 2142.16 644.162 2142.16 667.918V705.532Z" fill="white"></path>
<path d="M480.291 334.751C436.986 334.113 385 332.092 385 332.092C385 332.092 388.067 451.841 390.199 491.686C392.382 531.638 399.296 611.329 400.596 651.281C401.896 691.179 401.896 770.977 400.596 810.875C399.296 850.827 392.382 930.571 390.199 970.47C388.067 1010.32 385 1130.06 385 1130.06C385 1130.06 436.986 1128.1 480.291 1127.4C523.648 1126.77 610.257 1124.43 653.613 1124.74C696.97 1125.07 826.884 1130.06 826.884 1130.06L806.245 1108.94C806.245 1108.94 696.71 1014.36 662.399 980.365C624.501 942.86 554.32 862.158 518.553 822.526C498.018 799.757 436.986 731.078 436.986 731.078C436.986 731.078 497.966 662.293 518.553 639.636C554.164 600.482 624.865 521.695 662.399 484.456C696.97 450.144 806.245 353.217 806.245 353.217L826.884 332.145C826.884 332.145 828.807 478.498 832.083 544.884C833.694 578.186 839.881 697.723 839.881 731.078C839.881 764.433 833.694 883.97 832.083 917.272C828.807 983.716 826.884 1130.06 826.884 1130.06C826.884 1130.06 836.242 1119.37 847.211 1106.92C858.18 1094.47 870.76 1080.21 877.207 1073.25C897.637 1050.96 939.226 1007.07 960.385 985.472C980.868 964.512 1022.3 923.123 1043.56 903.015C1054.12 893.013 1086.82 864.073 1086.82 864.073C1086.82 864.073 1054.12 833.117 1043.56 822.478C1021.36 800.135 956.85 731.078 956.85 731.078C956.85 731.078 1021.36 662.032 1043.56 639.684C1054.12 629.044 1086.82 598.083 1086.82 598.083C1086.82 598.083 1054.38 566.855 1043.56 556.487C1022.77 536.538 980.556 497.272 960.385 476.69C938.915 454.772 898.053 408.803 877.207 386.253C864.626 372.682 826.884 332.092 826.884 332.092C826.884 332.092 696.918 337.092 653.613 337.411C610.257 337.736 523.648 335.443 480.291 334.751Z" fill="white"></path>
<path d="M1685.13 1127.4C1728.43 1128.04 1780.42 1130.06 1780.42 1130.06C1780.42 1130.06 1777.35 1010.32 1775.22 970.47C1773.04 930.518 1766.12 850.827 1764.82 810.875C1763.52 770.977 1763.52 691.179 1764.82 651.281C1766.12 611.329 1773.04 531.585 1775.22 491.686C1777.35 451.841 1780.42 332.092 1780.42 332.092C1780.42 332.092 1728.43 334.06 1685.13 334.751C1641.77 335.39 1555.16 337.731 1511.8 337.411C1468.45 337.087 1338.53 332.092 1338.53 332.092L1359.17 353.211C1359.17 353.211 1468.71 447.798 1503.02 481.791C1540.92 519.296 1611.1 599.998 1646.86 639.63C1667.4 662.399 1728.43 731.078 1728.43 731.078C1728.43 731.078 1667.45 799.863 1646.86 822.52C1611.25 861.674 1540.55 940.461 1503.02 977.7C1468.45 1012.01 1359.17 1108.94 1359.17 1108.94L1338.53 1130.01C1338.53 1130.01 1336.61 983.658 1333.33 917.272C1331.72 883.97 1325.54 764.433 1325.54 731.078C1325.54 697.723 1331.72 578.186 1333.33 544.884C1336.61 478.44 1338.53 332.092 1338.53 332.092C1338.53 332.092 1329.18 342.784 1318.21 355.233C1307.24 367.681 1294.66 381.944 1288.21 388.907C1267.78 411.197 1226.19 455.086 1205.03 476.684C1184.55 497.644 1143.12 539.033 1121.85 559.141C1111.3 569.143 1078.6 598.083 1078.6 598.083C1078.6 598.083 1111.3 629.039 1121.85 639.678C1144.05 662.021 1208.57 731.078 1208.57 731.078C1208.57 731.078 1144.05 800.124 1121.85 822.472C1111.3 833.112 1078.6 864.073 1078.6 864.073C1078.6 864.073 1111.04 895.301 1121.85 905.669C1142.65 925.618 1184.86 964.884 1205.03 985.466C1226.5 1007.38 1267.36 1053.35 1288.21 1075.9C1300.79 1089.47 1338.53 1130.06 1338.53 1130.06C1338.53 1130.06 1468.5 1125.06 1511.8 1124.74C1555.16 1124.42 1641.77 1126.71 1685.13 1127.4Z" fill="white"></path>
</svg>